<?xml version="1.0" standalone="no"?>
<svg viewBox="0 0 200 200" xmlns="http://www.w3.org/2000/svg">
  <path fill="#FF0066" d="M40.3,-71.3C49.8,-64.4,53.3,-48.6,56.8,-35.2C60.2,-21.9,63.6,-10.9,64,0.2C64.4,11.4,61.9,22.8,58.1,35.7C54.4,48.6,49.5,63,39.6,70.9C29.8,78.8,14.9,80.2,1.2,78.1C-12.5,76.1,-25,70.5,-37.1,63.9C-49.1,57.2,-60.8,49.5,-70.7,38.7C-80.5,27.9,-88.7,13.9,-89.7,-0.6C-90.8,-15.2,-84.8,-30.4,-76.5,-43.9C-68.3,-57.5,-57.6,-69.5,-44.5,-74.3C-31.3,-79.2,-15.7,-77,-0.1,-76.8C15.4,-76.6,30.8,-78.3,40.3,-71.3Z" transform="translate(100 100)" />
</svg>
