<?xml version="1.0" standalone="no"?>
<svg viewBox="0 0 200 200" xmlns="http://www.w3.org/2000/svg">
  <path fill="#FF0066" d="M34.7,-61C48,-52.4,63.9,-49.3,73,-40C82.1,-30.7,84.4,-15.4,83.2,-0.7C82,14,77.2,27.9,69.1,38.9C61,49.9,49.6,58,37.5,62.8C25.4,67.6,12.7,69.1,-1.5,71.7C-15.7,74.3,-31.5,78,-43.5,73.2C-55.5,68.4,-63.8,55,-71.3,41.4C-78.8,27.8,-85.5,13.9,-86.7,-0.7C-88,-15.3,-83.7,-30.6,-75,-42.1C-66.3,-53.6,-53.1,-61.3,-39.8,-69.9C-26.5,-78.5,-13.3,-88,-1.3,-85.8C10.7,-83.6,21.4,-69.6,34.7,-61Z" transform="translate(100 100)" />
</svg>
